<?xml version="1.0" encoding="iso-8859-1"?>
<!-- Generator: Adobe Illustrator 16.0.0, SVG Export Plug-In . SVG Version: 6.00 Build 0)  -->
<!DOCTYPE svg PUBLIC "-//W3C//DTD SVG 1.1//EN" "http://www.w3.org/Graphics/SVG/1.1/DTD/svg11.dtd">
<svg version="1.1" id="Capa_1" xmlns="http://www.w3.org/2000/svg" xmlns:xlink="http://www.w3.org/1999/xlink" x="0px" y="0px"
	 width="47.069px" height="47.07px" viewBox="0 0 47.069 47.07" style="enable-background:new 0 0 47.069 47.07;"
	 xml:space="preserve">
<g>
	<g>
		<path d="M9.435,5.878C4.224,5.878,0,10.102,0,15.313v15.603c0,5.074,4.113,9.188,9.187,9.188v-3.251H8.679
			c-2.997,0-5.426-2.429-5.426-5.425v-16.91c0-2.997,2.429-5.426,5.426-5.426h29.754c2.996,0,5.426,2.429,5.426,5.426v16.91
			c0,2.996-2.43,5.425-5.426,5.425h-0.428v3.251c5.006,0,9.063-4.058,9.063-9.062V15.065c0-5.074-4.113-9.187-9.187-9.187H9.435z"/>
		<path d="M11.24,34.818V10.715H9.316c-2.204,0-3.991,1.787-3.991,3.992v16.121c0,2.205,1.787,3.992,3.991,3.992h1.924V34.818z"/>
		<rect x="28.918" y="10.715" width="5.146" height="24.103"/>
		<rect x="18.665" y="10.715" width="3.786" height="24.103"/>
		<rect x="24.607" y="10.715" width="2.154" height="24.103"/>
		<rect x="13.384" y="10.715" width="3.211" height="24.103"/>
		<path d="M12.972,36.502c-1.172,0-1.731,1.04-1.731,2.352c0.009,1.283,0.525,2.337,1.696,2.337c1.158,0,1.723-0.963,1.723-2.365
			C14.659,37.583,14.185,36.502,12.972,36.502z M12.964,40.389c-0.41,0-0.662-0.495-0.655-1.535
			c-0.007-1.054,0.258-1.549,0.648-1.549c0.427,0,0.643,0.53,0.643,1.535C13.599,39.873,13.376,40.389,12.964,40.389z"/>
		<path d="M17.443,36.502c-1.173,0-1.729,1.04-1.729,2.352c0.006,1.283,0.522,2.337,1.694,2.337c1.159,0,1.724-0.963,1.724-2.365
			C19.132,37.583,18.657,36.502,17.443,36.502z M17.437,40.389c-0.412,0-0.663-0.495-0.656-1.535
			c-0.007-1.054,0.258-1.549,0.648-1.549c0.425,0,0.643,0.53,0.643,1.535C18.072,39.873,17.848,40.389,17.437,40.389z"/>
		<polygon points="20.084,37.131 20.259,37.939 21.124,37.541 21.138,37.541 21.138,41.119 22.153,41.119 22.153,36.566 
			21.285,36.566 		"/>
		<path d="M25.161,40.228l0.422-0.349c0.656-0.586,1.209-1.192,1.209-1.953c0-0.824-0.563-1.424-1.59-1.424
			c-0.612,0-1.144,0.209-1.484,0.468l0.299,0.761c0.238-0.182,0.578-0.377,0.971-0.377c0.523,0,0.746,0.293,0.746,0.664
			c-0.014,0.53-0.497,1.04-1.487,1.925l-0.589,0.53v0.646h3.211v-0.894h-1.707L25.161,40.228L25.161,40.228z"/>
		<path d="M29.773,36.502c-0.997,0-1.709,0.747-1.709,1.633c0,0.879,0.648,1.417,1.416,1.417c0.412,0,0.703-0.119,0.906-0.328
			l0.022,0.006c-0.086,0.342-0.281,0.635-0.573,0.838c-0.244,0.168-0.566,0.258-0.888,0.278c-0.209,0.015-0.333,0.015-0.455,0v0.831
			c0.122,0.007,0.295,0.014,0.476,0c0.705-0.028,1.297-0.244,1.729-0.634c0.495-0.454,0.793-1.146,0.793-2.087
			C31.491,37.395,30.939,36.502,29.773,36.502z M30.352,38.498c-0.096,0.16-0.299,0.301-0.584,0.301
			c-0.435,0-0.643-0.334-0.643-0.725c-0.008-0.476,0.258-0.795,0.62-0.795c0.481,0,0.664,0.474,0.664,0.955
			C30.41,38.367,30.389,38.435,30.352,38.498z"/>
		<path d="M35.219,38.463c-0.322-0.231-0.761-0.328-1.192-0.328c-0.111,0-0.196,0.004-0.294,0.019l0.098-0.693h1.777v-0.896H33.09
			l-0.301,2.386c0.189-0.027,0.364-0.039,0.615-0.039c0.906,0,1.277,0.289,1.277,0.757c0,0.48-0.47,0.69-0.908,0.69
			c-0.411,0-0.823-0.125-1.025-0.223l-0.188,0.796c0.25,0.132,0.711,0.258,1.263,0.258c1.222,0,1.946-0.745,1.946-1.59
			C35.77,39.07,35.561,38.693,35.219,38.463z"/>
	</g>
	<path d="M36.178,10.715v24.103h1.615c2.205,0,3.992-1.787,3.992-3.992v-16.12c0-2.205-1.787-3.992-3.992-3.992L36.178,10.715
		L36.178,10.715z"/>
</g>
<g>
</g>
<g>
</g>
<g>
</g>
<g>
</g>
<g>
</g>
<g>
</g>
<g>
</g>
<g>
</g>
<g>
</g>
<g>
</g>
<g>
</g>
<g>
</g>
<g>
</g>
<g>
</g>
<g>
</g>
</svg>
