<?xml version="1.0" encoding="iso-8859-1"?>
<!-- Generator: Adobe Illustrator 16.0.0, SVG Export Plug-In . SVG Version: 6.00 Build 0)  -->
<!DOCTYPE svg PUBLIC "-//W3C//DTD SVG 1.1//EN" "http://www.w3.org/Graphics/SVG/1.1/DTD/svg11.dtd">
<svg version="1.1" id="Capa_1" xmlns="http://www.w3.org/2000/svg" xmlns:xlink="http://www.w3.org/1999/xlink" x="0px" y="0px"
	 width="104.431px" height="104.431px" viewBox="0 0 104.431 104.431" style="enable-background:new 0 0 104.431 104.431;"
	 xml:space="preserve">
<g>
	<g>
		<path d="M83.405,40.431L81.536,8.097h-9.623L70.124,43.54l-29.387,6.865v7.587l-10.422-1.886l-1.237-21.404h-7.032l-0.996,19.73
			l-5.852-1.057v51.055h25.546h25.547h25.546V38.469L83.405,40.431z M81.934,56.072c-0.15,0.4-0.318,1.081-0.585,1.735
			c-0.229,0.656-0.51,1.454-0.832,2.371c-0.294,0.887-0.63,1.804-0.985,2.703c-0.359,0.921-0.719,1.92-1.14,2.824
			c-0.418,0.91-0.846,1.912-1.358,2.778c-0.982,1.838-2.19,3.573-3.61,5.198c-0.691,0.846-1.489,1.578-2.283,2.365
			c-0.801,0.763-1.677,1.447-2.566,2.121c-0.91,0.66-1.831,1.294-2.799,1.848c-0.979,0.559-1.924,1.089-2.896,1.54
			c-0.958,0.462-1.909,0.859-2.8,1.201c-0.602,0.247-1.197,0.441-1.752,0.616c-3.793,8.151-2.019,17.744-1.995,17.863l-1.7,0.336
			c-0.098-0.51-1.826-9.862,1.807-18.274c0.123-0.312,0.253-0.64,0.396-0.989c0.938-2.282,2.324-5.283,4.012-8.117
			c0.834-1.427,1.766-2.789,2.692-4.027c0.489-0.603,0.962-1.181,1.414-1.726c0.489-0.517,0.951-1.002,1.379-1.454
			c0.469-0.41,0.894-0.79,1.27-1.122c0.362-0.353,0.753-0.568,1.044-0.787c0.596-0.418,0.934-0.661,0.934-0.661
			s-0.355,0.213-0.981,0.582c-0.312,0.195-0.719,0.387-1.112,0.712c-0.411,0.308-0.869,0.653-1.376,1.03
			c-0.466,0.421-0.972,0.876-1.506,1.361c-0.503,0.518-1.033,1.071-1.581,1.643c-1.033,1.185-2.098,2.495-3.066,3.874
			c-1.937,2.752-3.597,5.694-4.739,7.957c-0.229,0.462-0.438,0.88-0.623,1.272c-0.106-0.294-0.214-0.629-0.294-0.975
			c-0.193-0.743-0.441-1.667-0.568-2.652c-0.147-1.003-0.214-2.095-0.221-3.269c0.041-2.31,0.414-4.907,1.36-7.437
			c0.438-1.27,1.047-2.519,1.756-3.727c0.681-1.222,1.577-2.364,2.474-3.47c0.959-1.081,2.013-2.095,3.118-3.015
			c1.174-0.89,2.341-1.701,3.631-2.361c1.311-0.634,2.546-1.212,3.888-1.558c1.348-0.353,2.607-0.612,3.843-0.712
			c1.27-0.064,2.427-0.027,3.453,0.076c1.02,0.089,2.012,0.434,2.751,0.64c0.732,0.202,1.355,0.523,1.738,0.681
			c0.4,0.185,0.616,0.314,0.616,0.314S82.07,55.617,81.934,56.072z"/>
		<path d="M17.739,33.542c0.83-0.34,1.518-0.866,1.913-1.573c0.539-0.832,0.505-1.002,0.842-1.68
			c0.122-0.406,0.284-0.71,0.431-0.948c0.175-0.149,0.202-0.351,0.365-0.394c0.279-0.231,1.117-0.144,1.807,0.063
			c1.42,0.424,2.555,0.903,2.555,0.903s-0.251-1.205-1.559-2.516c-0.331-0.33-0.739-0.662-1.277-0.933
			c-0.549-0.241-1.247-0.518-2.101-0.371c-0.859,0.084-1.678,0.582-2.233,1.184c-0.498,0.604-0.852,1.241-1.09,1.85
			c-0.13,0.284-0.399,1.196-0.501,1.224c-0.098,0.224-0.238,0.417-0.301,0.511c-0.087,0.05-0.207,0.229-0.518,0.204
			c-0.281,0.014-0.642-0.067-0.98-0.151c-1.377-0.448-2.497-1.002-2.497-1.002s0.166,1.23,1.461,2.597
			c0.348,0.333,0.748,0.704,1.367,0.943C15.987,33.732,16.89,33.84,17.739,33.542z"/>
		<path d="M64.665,7.397c0.562,0.284,1.469,0.396,2.313,0.094c0.835-0.342,1.52-0.869,1.917-1.578
			c0.54-0.83,0.503-0.998,0.842-1.677c0.123-0.407,0.28-0.712,0.431-0.952c0.171-0.15,0.202-0.349,0.363-0.395
			c0.28-0.231,1.115-0.14,1.807,0.063c1.42,0.428,2.556,0.907,2.556,0.907s-0.253-1.208-1.56-2.516
			c-0.329-0.328-0.739-0.662-1.276-0.936c-0.548-0.238-1.246-0.515-2.102-0.368c-0.859,0.081-1.677,0.582-2.231,1.184
			c-0.499,0.599-0.853,1.241-1.088,1.848c-0.138,0.287-0.404,1.198-0.503,1.225c-0.1,0.226-0.24,0.417-0.302,0.513
			c-0.089,0.048-0.209,0.226-0.517,0.202c-0.28,0.01-0.644-0.067-0.985-0.151c-1.376-0.448-2.491-1.002-2.491-1.002
			s0.164,1.227,1.457,2.597C63.642,6.786,64.042,7.156,64.665,7.397z"/>
	</g>
</g>
<g>
</g>
<g>
</g>
<g>
</g>
<g>
</g>
<g>
</g>
<g>
</g>
<g>
</g>
<g>
</g>
<g>
</g>
<g>
</g>
<g>
</g>
<g>
</g>
<g>
</g>
<g>
</g>
<g>
</g>
</svg>
