<?xml version="1.0" encoding="iso-8859-1"?>
<!-- Generator: Adobe Illustrator 17.1.0, SVG Export Plug-In . SVG Version: 6.00 Build 0)  -->
<!DOCTYPE svg PUBLIC "-//W3C//DTD SVG 1.1//EN" "http://www.w3.org/Graphics/SVG/1.1/DTD/svg11.dtd">
<svg version="1.1" id="Capa_1" xmlns="http://www.w3.org/2000/svg" xmlns:xlink="http://www.w3.org/1999/xlink" x="0px" y="0px"
	 viewBox="0 0 208.333 208.333" style="enable-background:new 0 0 208.333 208.333;" xml:space="preserve">
<path d="M200.833,2.501H90.885c-21.074,0-38.218,17.146-38.218,38.22v25.573c-3.085,0.93-5.333,3.791-5.333,7.179
	c0,4.073,3.248,7.379,7.293,7.49l-2.299,29.827c-2.403-4.513-7.514-5.871-12.868-6.563c-3.364-0.434-7.937-0.654-13.589-0.654
	c-9.32,0-18.468,0.583-18.854,0.608C3.071,104.436,0,107.71,0,111.665v86.667c0,4.143,3.358,7.5,7.5,7.5h184.598
	c4.142,0,7.5-3.357,7.5-7.5v-29.321c0-3.365-2.242-6.319-5.484-7.224c-28.437-7.937-36.498-12.847-38.774-14.943
	c0.58-0.949,1.542-2.234,2.247-3.175c3.012-4.021,7.136-9.527,5.378-16.139c-1.189-4.471-4.62-7.878-10.489-10.415
	c-8.081-3.494-21.424-5.267-39.659-5.267c-4.477,0-8.522,0.109-11.718,0.236l-2.44-31.545c2.915-1.028,5.008-3.799,5.008-7.067
	c0-2.885-1.631-5.386-4.02-6.641V55.869c0-4.218,3.431-7.648,7.649-7.648h93.537c4.142,0,7.5-3.357,7.5-7.5v-30.72
	C208.333,5.859,204.976,2.501,200.833,2.501z M69.611,81.744h14.096L87.4,129.48c-7.009,1.838-14.489,1.845-21.472,0.034
	L69.611,81.744z M138.037,162.323c2.442-3.343,7.135-4.076,10.48-1.633s4.076,7.135,1.633,10.48
	c-0.558,0.764-14.043,18.722-46.188,18.722c-4.142,0-7.5-3.357-7.5-7.5s3.358-7.5,7.5-7.5
	C128.18,174.892,137.945,162.448,138.037,162.323z M104.977,142.668c2.616-3.212,7.34-3.696,10.552-1.079
	c3.211,2.615,3.695,7.34,1.079,10.552c-1.147,1.408-12.016,13.764-39.94,13.764c-24.354,0-34.62-9.079-37.993-12.063
	c-0.013-0.011-0.026-0.022-0.038-0.033c-2.156-1.318-3.594-3.693-3.594-6.404c0-4.143,3.358-7.5,7.5-7.5
	c3.015,0,4.854,1.626,6.07,2.702c2.321,2.052,9.382,8.298,28.055,8.298C97.341,150.905,104.91,142.751,104.977,142.668z"/>
<g>
</g>
<g>
</g>
<g>
</g>
<g>
</g>
<g>
</g>
<g>
</g>
<g>
</g>
<g>
</g>
<g>
</g>
<g>
</g>
<g>
</g>
<g>
</g>
<g>
</g>
<g>
</g>
<g>
</g>
</svg>
