<?xml version="1.0" encoding="iso-8859-1"?>
<!-- Generator: Adobe Illustrator 18.1.1, SVG Export Plug-In . SVG Version: 6.00 Build 0)  -->
<svg version="1.1" id="Capa_1" xmlns="http://www.w3.org/2000/svg" xmlns:xlink="http://www.w3.org/1999/xlink" x="0px" y="0px"
	 viewBox="0 0 32.002 32.002" style="enable-background:new 0 0 32.002 32.002;" xml:space="preserve">
<g>
	<g id="undo">
		<g>
			<path style="fill:#030104;" d="M28.157,3.719c-4.957-4.957-13.605-4.961-18.559,0L4.001,9.32V4h-4v12.007h12v-3.92H6.978
				l5.453-5.537c3.445-3.449,9.453-3.449,12.898,0.004c1.723,1.723,2.672,4.012,2.672,6.534c0,2.357-0.949,4.646-2.672,6.373
				l-3.016,3.014l2.828,2.828l3.016-3.008c2.477-2.486,3.844-5.783,3.844-9.207C32.001,9.496,30.634,6.199,28.157,3.719z"/>
			<polygon style="fill:#030104;" points="18.45,32.002 15.622,29.166 18.45,26.338 21.278,29.166 			"/>
		</g>
	</g>
</g>
<g>
</g>
<g>
</g>
<g>
</g>
<g>
</g>
<g>
</g>
<g>
</g>
<g>
</g>
<g>
</g>
<g>
</g>
<g>
</g>
<g>
</g>
<g>
</g>
<g>
</g>
<g>
</g>
<g>
</g>
</svg>
