<?xml version="1.0" encoding="iso-8859-1"?>
<!-- Generator: Adobe Illustrator 16.0.0, SVG Export Plug-In . SVG Version: 6.00 Build 0)  -->
<!DOCTYPE svg PUBLIC "-//W3C//DTD SVG 1.1//EN" "http://www.w3.org/Graphics/SVG/1.1/DTD/svg11.dtd">
<svg version="1.1" id="Capa_1" xmlns="http://www.w3.org/2000/svg" xmlns:xlink="http://www.w3.org/1999/xlink" x="0px" y="0px"
	 width="46.061px" height="46.061px" viewBox="0 0 46.061 46.061" style="enable-background:new 0 0 46.061 46.061;"
	 xml:space="preserve">
<g>
	<g>
		<path d="M45.267,23.391C42.9,14.003,37.203,2.994,24.535,2.182V1.504C24.535,0.673,23.859,0,23.027,0
			c-0.83,0-1.506,0.673-1.506,1.504v0.673C8.235,2.944,3.166,13.982,0.793,23.391c-0.135,0.531,0.551,0.852,0.896,0.426
			c1.403-1.73,3.54-2.839,5.945-2.839c3.328,0,6.166,2.114,7.242,5.07c0.158,0.438,0.752,0.438,0.91,0
			c0.91-2.502,3.063-4.4,5.734-4.924v19.187c0,1.513-1.216,2.742-2.817,2.742c-1.515,0-2.73-1.229-2.73-2.742v-1.916
			c0-0.831-0.675-1.504-1.506-1.504s-1.507,0.673-1.507,1.504v1.916c0,3.173,2.571,5.75,5.83,5.75c3.173,0,5.744-2.577,5.744-5.75
			V21.126c2.668,0.529,4.829,2.424,5.737,4.921c0.159,0.439,0.769,0.439,0.928,0c1.076-2.957,3.915-5.07,7.243-5.07
			c2.405,0,4.534,1.109,5.938,2.839C44.727,24.242,45.403,23.922,45.267,23.391z"/>
	</g>
</g>
<g>
</g>
<g>
</g>
<g>
</g>
<g>
</g>
<g>
</g>
<g>
</g>
<g>
</g>
<g>
</g>
<g>
</g>
<g>
</g>
<g>
</g>
<g>
</g>
<g>
</g>
<g>
</g>
<g>
</g>
</svg>
